<svg width="285" height="285" viewBox="0 0 285 285" fill="none" xmlns="http://www.w3.org/2000/svg">
<path d="M131.406 80.7595L94.2684 63.5049L53.5005 82.2327L91.6479 99.8648L131.406 80.7595Z" fill="#4DABCF"/>
<path d="M148.439 88.668L187.376 106.77L146.978 125.442L108.771 107.782L148.439 88.668Z" fill="#4DABCF"/>
<path d="M200.449 63.7627L240.456 82.2327L204.669 98.7691L165.652 80.649L200.449 63.7627Z" fill="#4DABCF"/>
<path d="M183.225 55.8072L147.208 39.1787L111.582 55.5494L148.699 72.7764L183.225 55.8072Z" fill="#4DABCF"/>
<path d="M155.07 198.577V243.822L198.698 223.777L198.658 178.514L155.07 198.577Z" fill="#4DABCF"/>
<path d="M198.638 162.714L198.588 117.93L155.07 137.845V182.648L198.638 162.714Z" fill="#4DABCF"/>
<path d="M251.019 154.326V199.746L213.801 216.835L213.771 171.627L251.019 154.326Z" fill="#4DABCF"/>
<path d="M251.019 138.443V93.9346L213.731 110.996L213.761 155.873L251.019 138.443Z" fill="#4DABCF"/>
<path d="M139.667 137.845L110.281 124.236V183.016C110.281 183.016 74.3344 112.617 71.0137 106.291C70.5836 105.472 68.8233 104.579 68.3732 104.358C61.892 101.246 43.0083 92.4434 43.0083 92.4434V196.33L69.1334 209.22V154.897C69.1334 154.897 104.69 217.802 105.06 218.492C105.43 219.183 108.981 225.803 112.802 228.132C117.873 231.235 139.647 243.288 139.647 243.288L139.667 137.845Z" fill="#4D77CF"/>
</svg>
